<?xml version="1.0" standalone="no"?>
<!DOCTYPE svg PUBLIC "-//W3C//DTD SVG 20010904//EN"
 "http://www.w3.org/TR/2001/REC-SVG-20010904/DTD/svg10.dtd">
<svg version="1.0" xmlns="http://www.w3.org/2000/svg"
 width="209.000000pt" height="209.000000pt" viewBox="0 0 209.000000 209.000000"
 preserveAspectRatio="xMidYMid meet">
<metadata>
Created by potrace 1.14, written by Peter Selinger 2001-2017
</metadata>
<g transform="translate(0.000000,209.000000) scale(0.100000,-0.100000)"
fill="#000000" stroke="none">
<path d="M1060 2060 c-111 -5 -131 -8 -182 -33 -32 -16 -82 -52 -113 -80 -30
-29 -55 -50 -55 -47 0 9 31 52 59 84 24 26 24 28 4 17 -26 -13 -63 -60 -91
-116 -32 -65 -51 -179 -43 -271 l6 -81 50 -47 c71 -66 175 -134 264 -172 64
-29 71 -34 46 -35 -16 -1 -33 -1 -36 -1 -42 6 -79 9 -79 7 0 -2 19 -13 43 -25
75 -39 166 -142 153 -175 -3 -8 -1 -17 3 -20 5 -3 7 -14 4 -26 -3 -11 -1 -30
5 -42 31 -65 25 -71 -81 -87 -82 -12 -174 -4 -259 24 -47 15 -80 17 -72 4 3
-4 -1 -8 -8 -8 -29 -1 31 -32 109 -56 69 -22 96 -25 178 -22 92 3 98 4 117 31
29 40 39 33 37 -23 -2 -27 -5 -50 -9 -50 -3 0 -7 -13 -8 -29 -4 -48 -27 -81
-77 -108 -26 -13 -44 -20 -41 -14 4 6 2 11 -3 11 -6 0 -11 -4 -11 -8 0 -5 -27
-17 -60 -27 -95 -29 -191 -12 -357 61 l-43 19 0 68 c0 37 -3 67 -8 67 -4 0
-18 -7 -31 -17 -24 -16 -24 -16 -16 13 17 65 16 90 -2 106 -32 29 -175 99
-189 94 -16 -6 -28 -31 -46 -96 l-12 -45 -6 40 -6 40 -9 -29 c-5 -18 -2 -78 7
-154 l15 -126 48 -45 c46 -43 48 -47 52 -110 4 -57 2 -71 -19 -100 -30 -44
-82 -71 -136 -71 l-43 0 3 -37 c3 -34 8 -40 78 -81 41 -24 89 -49 105 -54 17
-6 50 -19 74 -30 105 -47 166 -59 259 -52 48 4 89 11 93 15 3 5 21 4 39 -1 19
-6 36 -10 37 -10 2 0 3 9 3 20 0 33 24 23 42 -18 l17 -37 -5 32 c-9 56 20 39
41 -22 21 -64 2 -60 235 -55 228 4 221 3 258 38 19 18 50 36 70 42 48 12 112
56 112 76 0 8 6 14 13 12 24 -5 56 23 101 87 59 85 75 115 92 184 10 37 29 72
56 104 37 44 39 49 23 61 -16 11 -15 16 11 67 16 29 33 57 39 61 5 4 7 10 3
13 -3 4 3 16 14 27 11 11 17 26 14 33 -2 7 2 16 9 19 23 8 7 34 -35 57 -68 39
-85 72 -85 169 0 82 2 88 51 186 28 55 55 123 59 150 4 27 11 57 17 68 5 10 6
16 1 13 -4 -2 -17 4 -28 15 -20 19 -20 19 0 13 11 -4 0 5 -25 21 -25 15 -47
30 -50 33 -3 3 -12 7 -20 9 -8 2 -45 17 -82 34 -65 30 -67 32 -71 72 -3 37 -4
36 -5 -12 -1 -33 -6 -51 -12 -47 -6 4 -9 14 -8 22 2 9 -3 18 -11 21 -9 3 -11
0 -6 -8 5 -8 4 -11 -3 -6 -5 3 -12 0 -15 -6 -2 -7 -4 1 -5 19 -2 73 -61 239
-92 258 -5 3 -15 16 -21 28 -14 27 -9 23 30 -27 17 -21 31 -34 31 -29 0 6 -16
28 -35 49 -19 21 -35 35 -35 31 0 -4 -32 15 -71 42 l-71 50 -82 -2 c-44 -1
-137 -4 -206 -7z m30 -66 c0 -3 -22 -31 -50 -60 -80 -89 -140 -235 -140 -345
0 -43 13 -132 26 -171 10 -32 -22 -20 -74 27 -63 57 -94 127 -94 210 0 161 92
294 229 331 52 14 103 18 103 8z m266 -589 c-9 -14 -21 -25 -27 -25 -5 0 0 13
12 30 27 35 39 32 15 -5z m194 -235 c45 -12 83 -53 116 -125 31 -65 31 -77 0
-65 -49 18 -153 33 -234 32 -70 -1 -82 1 -72 13 8 9 8 15 0 20 -6 3 -8 10 -5
14 7 12 -39 8 -47 -4 -9 -11 -1 62 8 76 5 8 -27 14 -51 9 -5 -1 -4 4 3 11 30
31 196 42 282 19z m155 -264 c36 -124 38 -270 4 -396 -52 -194 -193 -400 -276
-403 -7 0 -13 -4 -13 -9 0 -5 -5 -6 -10 -3 -6 4 -21 0 -34 -8 -14 -9 -28 -12
-36 -7 -8 5 -22 4 -32 -1 -12 -7 -18 -6 -18 1 0 7 -6 7 -21 0 -11 -7 -23 -9
-26 -6 -3 2 -15 1 -28 -4 -23 -9 -45 3 -45 25 0 5 5 3 10 -5 7 -12 13 -13 27
-4 10 6 31 10 47 8 22 -2 26 0 17 9 -6 6 -11 16 -11 22 0 5 5 2 11 -8 10 -18
11 -18 25 0 11 15 13 15 8 2 -3 -10 -1 -20 4 -23 6 -3 9 7 8 23 -2 26 0 28 17
19 16 -8 17 -12 6 -19 -11 -7 -11 -9 3 -9 9 0 18 -5 20 -12 3 -7 7 -5 11 6 4
10 3 15 -3 11 -6 -3 -11 -1 -11 4 -1 6 -2 15 -3 20 0 5 -5 13 -10 18 -5 5 -6
2 -1 -6 5 -10 4 -12 -4 -7 -6 4 -9 12 -5 17 3 5 10 7 15 4 5 -4 10 -1 10 4 3
26 4 30 11 36 4 4 4 -6 2 -22 -3 -22 -1 -30 11 -30 11 0 12 4 4 13 -8 9 -4 19
13 36 13 13 24 26 24 31 1 4 3 10 4 15 1 4 2 11 1 15 -1 5 3 6 9 2 8 -5 7 -11
-1 -21 -13 -16 -13 -16 18 -19 12 -1 20 2 17 6 -10 16 -13 50 -5 44 5 -3 11 2
15 10 3 8 11 15 18 15 9 0 9 -3 -2 -10 -8 -5 -12 -11 -9 -15 3 -3 14 5 25 17
10 12 13 18 7 14 -7 -4 -13 -2 -13 4 0 6 -4 9 -8 6 -5 -3 -9 1 -9 8 0 7 6 13
14 14 7 1 20 3 27 4 8 1 14 6 13 12 -1 6 4 10 11 8 10 -2 10 2 1 19 -6 12 -7
19 -1 15 12 -7 24 22 15 37 -4 7 2 5 12 -3 10 -8 16 -10 12 -4 -4 7 0 17 8 24
8 7 15 19 15 27 0 8 5 11 13 8 6 -4 3 0 -7 9 -17 14 -17 16 -3 22 13 4 14 10
7 24 -6 12 -7 21 0 25 5 3 6 13 3 22 -4 10 -2 14 4 10 5 -3 10 0 10 8 0 8 -5
11 -10 8 -6 -4 -8 0 -4 10 4 11 2 14 -9 10 -11 -4 -12 -9 -3 -19 11 -13 5 -18
-14 -15 -5 1 -6 -3 -3 -8 8 -12 -19 -63 -28 -54 -4 4 -4 -1 0 -11 6 -15 4 -17
-6 -11 -8 5 -11 4 -6 -3 3 -6 -4 -21 -16 -34 -13 -13 -16 -15 -8 -5 14 19 14
19 -9 7 -18 -9 -22 -9 -16 0 4 7 2 16 -5 20 -8 5 -9 13 -2 26 11 21 -8 49 -24
36 -5 -4 -1 2 8 14 14 16 15 23 6 32 -9 9 -9 12 0 12 15 0 16 36 1 46 -8 4 -7
9 2 15 10 6 11 9 2 9 -7 0 -12 3 -12 8 4 22 -2 42 -11 37 -5 -3 -7 0 -4 9 4
10 -8 21 -40 35 -26 11 -46 27 -46 35 0 9 -5 16 -12 16 -6 0 -9 2 -6 5 4 4 74
-6 133 -20 11 -3 15 -2 8 1 -17 7 7 33 24 27 7 -3 25 8 40 25 25 26 64 49 70
40 5 -7 31 37 27 44 -3 5 -1 8 5 8 6 0 18 -25 26 -54z m-1005 -295 c41 -12
105 -21 142 -21 37 0 70 -5 73 -10 4 -6 3 -10 -2 -9 -4 1 -10 1 -13 -1 -25 -9
-65 -14 -117 -13 -73 1 -93 4 -93 13 0 3 -24 16 -53 28 -30 13 -66 35 -81 51
l-28 29 49 -23 c27 -13 82 -33 123 -44z m797 27 c-3 -8 -6 -5 -6 6 -1 11 2 17
5 13 3 -3 4 -12 1 -19z m-557 -38 c0 -5 -5 -10 -11 -10 -5 0 -7 5 -4 10 3 6 8
10 11 10 2 0 4 -4 4 -10z m683 -32 c-6 -7 -9 -21 -8 -31 2 -9 0 -15 -5 -12
-13 8 1 55 17 55 3 0 1 -6 -4 -12z m-1173 -140 c0 -12 -6 -9 -26 13 -19 22
-19 22 4 8 12 -8 22 -17 22 -21z m-12 -55 c40 -13 57 -24 64 -43 6 -14 17 -37
25 -53 8 -15 15 -41 15 -57 1 -17 5 -27 11 -23 6 3 7 1 4 -4 -12 -20 -58 -24
-88 -9 -19 9 -27 10 -22 3 5 -9 3 -9 -8 -1 -22 17 -59 24 -59 11 0 -7 -5 -5
-10 3 -5 8 -10 12 -10 7 0 -4 -13 -1 -30 8 -16 9 -30 13 -30 10 0 -4 -6 -3
-12 2 -7 4 -19 8 -27 10 -8 1 -28 12 -44 24 -24 17 -31 19 -38 8 -7 -11 -9 -9
-9 7 0 25 54 78 100 98 46 20 101 20 168 -1z m1101 4 c18 7 16 4 -14 -17 -11
-8 -17 -10 -13 -6 4 5 2 16 -4 25 -10 13 -10 14 1 4 7 -6 21 -9 30 -6z m-95
-23 c3 -8 2 -12 -4 -9 -6 3 -10 10 -10 16 0 14 7 11 14 -7z m36 -14 c0 -5 -2
-10 -4 -10 -3 0 -8 5 -11 10 -3 6 -1 10 4 10 6 0 11 -4 11 -10z m-1 -33 c-2
-1 -13 -9 -24 -17 -19 -14 -19 -14 -6 3 7 9 18 17 24 17 6 0 8 -1 6 -3z m-84
-86 c-6 -5 -25 10 -25 20 0 5 6 4 14 -3 8 -7 12 -15 11 -17z m-44 6 c-6 -8 -7
-18 -3 -22 4 -5 1 -5 -6 -1 -10 6 -10 11 -1 22 6 8 14 14 16 14 3 0 0 -6 -6
-13z m-66 -15 c-3 -3 -11 0 -18 7 -9 10 -8 11 6 5 10 -3 15 -9 12 -12z m-243
-11 c-9 -9 -19 -13 -20 -9 -2 5 -8 5 -13 2 -6 -3 -5 -12 3 -22 10 -14 10 -15
-1 -5 -7 6 -21 9 -30 5 -13 -5 -14 -3 -4 10 7 8 9 19 5 23 -4 5 -2 6 3 2 6 -3
16 -2 23 2 6 3 20 7 31 8 18 2 19 1 3 -16z m279 2 c13 -16 12 -17 -3 -4 -17
13 -22 21 -14 21 2 0 10 -8 17 -17z m-246 -13 c3 -5 1 -10 -4 -10 -6 0 -11 5
-11 10 0 6 2 10 4 10 3 0 8 -4 11 -10z m65 -10 c-12 -7 -11 -12 5 -32 l19 -23
-23 21 c-23 21 -22 44 2 44 7 0 6 -4 -3 -10z m-95 -50 c10 -11 16 -20 13 -20
-3 0 -13 9 -23 20 -10 11 -16 20 -13 20 3 0 13 -9 23 -20z m62 -17 c0 -9 -4
-10 -14 -2 -7 6 -13 12 -13 14 0 1 6 2 13 2 8 0 14 -6 14 -14z m33 -3 c0 -5
-2 -10 -4 -10 -3 0 -8 5 -11 10 -3 6 -1 10 4 10 6 0 11 -4 11 -10z m65 1 c3
-5 2 -12 -3 -15 -5 -3 -9 1 -9 9 0 17 3 19 12 6z m-110 -21 c3 -5 1 -10 -4
-10 -6 0 -11 5 -11 10 0 6 2 10 4 10 3 0 8 -4 11 -10z m80 -30 c3 -5 1 -10 -4
-10 -6 0 -11 5 -11 10 0 6 2 10 4 10 3 0 8 -4 11 -10z"/>
<path d="M1595 849 c7 -11 35 -12 35 -1 0 4 -9 8 -20 9 -11 1 -18 -2 -15 -8z"/>
<path d="M1564 829 c-12 -4 -25 -13 -30 -20 -4 -7 -3 -10 4 -5 5 3 12 3 15 -1
2 -5 2 -3 1 4 -2 7 3 10 11 6 8 -3 13 -8 11 -12 -2 -3 2 -12 10 -18 9 -9 15
-10 20 -2 4 8 9 7 16 -2 8 -11 8 -11 4 1 -3 8 -9 23 -12 32 -8 22 -24 27 -50
17z m36 -19 c6 -11 7 -20 2 -20 -6 0 -12 9 -15 20 -3 11 -3 20 -1 20 2 0 8 -9
14 -20z"/>
<path d="M1418 206 c-11 -8 -14 -17 -7 -27 7 -12 9 -11 9 3 0 9 6 18 13 21 6
2 10 7 7 10 -3 3 -13 0 -22 -7z"/>
<path d="M1330 96 c0 -2 7 -7 16 -10 8 -3 12 -2 9 4 -6 10 -25 14 -25 6z"/>
<path d="M1605 1891 c6 -19 4 -23 -7 -18 -10 3 -14 -1 -13 -16 6 -69 41 -111
53 -65 5 20 8 18 18 -17 7 -22 13 -32 13 -23 1 24 -32 110 -53 139 l-18 24 7
-24z m28 -52 c4 -16 3 -19 -6 -10 -18 18 -31 13 -16 -6 13 -16 12 -17 -3 -4
-14 10 -15 17 -7 32 12 23 24 18 32 -12z"/>
<path d="M1630 1700 c13 -24 17 -25 17 -5 0 8 -6 16 -14 19 -11 4 -11 1 -3
-14z"/>
<path d="M600 1505 c-21 -26 -70 -47 -135 -61 -42 -8 -51 -12 -29 -13 67 -2
138 -32 182 -76 l43 -44 -40 -36 c-22 -20 -38 -42 -35 -49 5 -13 -41 -66 -57
-66 -5 0 -9 -10 -9 -23 0 -13 -5 -28 -12 -35 -9 -9 -9 -12 2 -12 8 -1 -1 -9
-20 -20 -27 -15 -30 -19 -15 -20 16 0 17 -2 6 -9 -11 -7 -9 -10 9 -13 24 -3
41 -28 20 -28 -6 0 -8 6 -4 13 4 6 3 8 -1 4 -14 -12 -14 -35 0 -47 13 -11 20
0 30 44 11 51 61 151 96 191 32 37 95 75 124 75 27 0 16 15 -42 58 -113 83
-115 86 -103 133 13 46 9 57 -10 34z"/>
<path d="M378 1423 c7 -3 16 -2 19 1 4 3 -2 6 -13 5 -11 0 -14 -3 -6 -6z"/>
<path d="M501 1124 c0 -11 3 -14 6 -6 3 7 2 16 -1 19 -3 4 -6 -2 -5 -13z"/>
</g>
</svg>
